<svg width="18" height="18" viewBox="0 0 18 18" fill="none" xmlns="http://www.w3.org/2000/svg">
<path d="M16.5897 4.71356L10.9971 0.649948C10.4146 0.227489 9.71346 0 8.9939 0C8.27434 0 7.5732 0.227489 6.99071 0.649948L1.39814 4.71356C0.966027 5.03167 0.614471 5.44662 0.371668 5.92513C0.128865 6.40363 0.001573 6.93238 8.85811e-07 7.46896V14.5987C-0.000321646 15.0454 0.0874362 15.4879 0.258255 15.9007C0.429073 16.3135 0.679601 16.6886 0.995508 17.0045C1.31141 17.3204 1.6865 17.5709 2.09932 17.7417C2.51213 17.9126 2.95457 18.0003 3.40133 18H14.5865C15.0332 18.0003 15.4757 17.9126 15.8885 17.7417C16.3013 17.5709 16.6764 17.3204 16.9923 17.0045C17.3082 16.6886 17.5587 16.3135 17.7295 15.9007C17.9004 15.4879 17.9881 15.0454 17.9878 14.5987V7.46896C17.9862 6.93238 17.8589 6.40363 17.6161 5.92513C17.3733 5.44662 17.0218 5.03167 16.5897 4.71356ZM12.755 13.7483C11.6671 14.5553 10.3485 14.991 8.9939 14.991C7.63935 14.991 6.32072 14.5553 5.23282 13.7483C5.14692 13.6839 5.07455 13.6032 5.01984 13.5108C4.96514 13.4184 4.92917 13.3162 4.91398 13.2099C4.88331 12.9952 4.93918 12.7771 5.06929 12.6037C5.1994 12.4302 5.39309 12.3155 5.60776 12.2848C5.82243 12.2542 6.04049 12.31 6.21397 12.4401C7.01772 13.0375 7.99249 13.36 8.9939 13.36C9.99531 13.36 10.9701 13.0375 11.7738 12.4401C11.9473 12.31 12.1654 12.2542 12.38 12.2848C12.5947 12.3155 12.7884 12.4302 12.9185 12.6037C13.0486 12.7771 13.1045 12.9952 13.0738 13.2099C13.0432 13.4245 12.9285 13.6182 12.755 13.7483Z" fill="white"/>
</svg>
