<svg width="20" height="20" viewBox="0 0 20 20" fill="none" xmlns="http://www.w3.org/2000/svg">
<mask id="mask0_272_8414" style="mask-type:luminance" maskUnits="userSpaceOnUse" x="0" y="0" width="20" height="20">
<path d="M0 0H20V20H0V0Z" fill="white"/>
</mask>
<g mask="url(#mask0_272_8414)">
<path d="M0 2.2C0 0.984972 0.984972 0 2.2 0H7C8.21504 0 9.2 0.984972 9.2 2.2V9.84C9.2 11.055 8.21504 12.04 7 12.04H2.2C0.984972 12.04 0 11.055 0 9.84V2.2Z" fill="white"/>
<path d="M12.9998 6.36C11.7848 6.36 10.7998 5.37504 10.7998 4.16V2.2C10.7998 0.984972 11.7848 0 12.9998 0H17.7998C19.0148 0 19.9998 0.984972 19.9998 2.2V4.16C19.9998 5.37504 19.0148 6.36 17.7998 6.36H12.9998Z" fill="white"/>
<path d="M12.9998 20C11.7848 20 10.7998 19.0151 10.7998 17.8V10.16C10.7998 8.94498 11.7848 7.96002 12.9998 7.96002H17.7998C19.0148 7.96002 19.9998 8.94498 19.9998 10.16V17.8C19.9998 19.0151 19.0148 20 17.7998 20H12.9998Z" fill="white"/>
<path d="M2.2 13.64C0.984972 13.64 0 14.625 0 15.84V17.8C0 19.0151 0.984972 20 2.2 20H7C8.21504 20 9.2 19.0151 9.2 17.8V15.84C9.2 14.625 8.21504 13.64 7 13.64H2.2Z" fill="white"/>
</g>
</svg>
