<svg width="16" height="18" viewBox="0 0 16 18" fill="none" xmlns="http://www.w3.org/2000/svg">
<path d="M2.99606 0C1.35108 0 0 1.36084 0 3.00583V17.0017C0.00164061 17.5541 0.450738 18.0005 1.00304 17.9988C1.15651 17.9984 1.30784 17.9626 1.44526 17.8942L3.46086 16.8903C4.36855 16.4365 5.44459 16.505 6.28896 17.0681C7.32117 17.7563 8.67464 17.7563 9.70689 17.0681C10.557 16.5041 11.6372 16.4398 12.5487 16.8982L14.5486 17.8942C15.0427 18.1412 15.6434 17.9409 15.8903 17.4469C15.9594 17.3086 15.9956 17.1563 15.9959 17.0017V3.00583C15.9959 1.36084 14.6429 0 12.9979 0L2.99606 0ZM4.99604 4.00191H10.9979C11.5502 4.00406 11.9961 4.45351 11.994 5.00581C11.9918 5.55506 11.5471 5.99974 10.9979 6.00189H4.99604C4.44683 5.99974 4.00211 5.55506 3.99996 5.00581C3.99781 4.45351 4.44374 4.00406 4.99604 4.00191ZM4.99604 8.00183H8.00187C8.55413 8.00398 9.0001 8.45343 8.99795 9.00573C8.9969 9.55572 8.55186 10.0016 8.00187 10.0038H4.99604C4.44605 10.0016 4.00101 9.55572 3.99996 9.00573C3.99781 8.45347 4.44374 8.00402 4.99604 8.00183Z" fill="white"/>
</svg>
