<svg width="20" height="20" viewBox="0 0 20 20" fill="none" xmlns="http://www.w3.org/2000/svg">
<path fill-rule="evenodd" clip-rule="evenodd" d="M10 20C1.765 20 0 18.235 0 10C0 1.765 1.765 0 10 0C18.235 0 20 1.765 20 10C20 18.235 18.235 20 10 20ZM5.83332 9.16668C5.37309 9.16668 5 9.53977 5 10C5 10.4602 5.37309 10.8333 5.83332 10.8333H14.1666C14.6269 10.8333 15 10.4602 15 10C15 9.53977 14.6269 9.16668 14.1666 9.16668H5.83332ZM7.5 5.83332C7.5 5.37309 7.87309 5 8.33332 5H11.6666C12.1269 5 12.5 5.37309 12.5 5.83332C12.5 6.29355 12.1269 6.66664 11.6666 6.66664H8.33332C7.87309 6.66668 7.5 6.29355 7.5 5.83332ZM8.33332 13.3333C7.87309 13.3333 7.5 13.7064 7.5 14.1666C7.5 14.6269 7.87309 15 8.33332 15H11.6666C12.1269 15 12.5 14.6269 12.5 14.1666C12.5 13.7064 12.1269 13.3333 11.6666 13.3333H8.33332Z" fill="white"/>
</svg>
