<svg width="14" height="14" viewBox="0 0 14 14" fill="none" xmlns="http://www.w3.org/2000/svg">
<g clip-path="url(#clip0_359_20843)">
<path d="M13.3164 6.4043C13.6454 6.4043 13.9121 6.67098 13.9121 7C13.9121 8.84709 13.1947 10.5807 11.8877 11.8877C10.5835 13.1946 8.84714 13.9121 7 13.9121C5.15291 13.9121 3.41934 13.1947 2.1123 11.8877C0.805364 10.5835 0.0878906 8.84714 0.0878906 7C0.0878906 6.67098 0.354575 6.4043 0.683594 6.4043C1.01261 6.4043 1.2793 6.67098 1.2793 7C1.2793 10.1546 3.84543 12.7207 7 12.7207C10.1546 12.7207 12.7207 10.1546 12.7207 7C12.7207 6.67098 12.9874 6.4043 13.3164 6.4043Z" fill="white" stroke="white" stroke-width="0.175"/>
<path d="M7 0.0878906C7.32902 0.0878906 7.59668 0.354575 7.59668 0.683594V7.92773L7.74609 7.77832L8.75195 6.76953C8.98572 6.53577 9.3619 6.53583 9.5957 6.76953C9.8295 7.00333 9.8295 7.37948 9.5957 7.61328L7.87598 9.33301C7.64349 9.56549 7.33217 9.69629 7 9.69629C6.6704 9.69624 6.35903 9.56801 6.12402 9.33301L4.40137 7.61328C4.16783 7.37953 4.16783 7.00328 4.40137 6.76953C4.63517 6.53573 5.0123 6.53573 5.24609 6.76953L6.4043 7.92773V0.683594C6.4043 0.35464 6.67107 0.0879965 7 0.0878906Z" fill="white" stroke="white" stroke-width="0.175"/>
</g>
<defs>
<clipPath id="clip0_359_20843">
<rect width="14" height="14" fill="white"/>
</clipPath>
</defs>
</svg>
