<svg width="16" height="12" viewBox="0 0 16 12" fill="none" xmlns="http://www.w3.org/2000/svg">
<path d="M14.6739 5.03221C14.891 5.3365 14.9996 5.48936 14.9996 5.71436C14.9996 5.94007 14.891 6.09221 14.6739 6.3965C13.6982 7.76507 11.206 10.7144 7.85672 10.7144C4.50672 10.7144 2.0153 7.76435 1.03958 6.3965C0.822439 6.09221 0.713867 5.93936 0.713867 5.71436C0.713867 5.48864 0.822439 5.3365 1.03958 5.03221C2.0153 3.66364 4.50744 0.714355 7.85672 0.714355C11.2067 0.714355 13.6982 3.66436 14.6739 5.03221Z" stroke="white" stroke-width="1.42857"/>
<path d="M9.99958 5.71512C9.99958 5.1468 9.77382 4.60176 9.37195 4.19989C8.97009 3.79803 8.42504 3.57227 7.85672 3.57227C7.2884 3.57227 6.74336 3.79803 6.3415 4.19989C5.93963 4.60176 5.71387 5.1468 5.71387 5.71512C5.71387 6.28344 5.93963 6.82849 6.3415 7.23035C6.74336 7.63221 7.2884 7.85798 7.85672 7.85798C8.42504 7.85798 8.97009 7.63221 9.37195 7.23035C9.77382 6.82849 9.99958 6.28344 9.99958 5.71512Z" stroke="white" stroke-width="1.42857"/>
</svg>
