<svg width="17" height="22" viewBox="0 0 17 22" fill="none" xmlns="http://www.w3.org/2000/svg">
<path d="M16.8705 17.9864C16.3782 16.5212 14.416 15.6041 13.0171 14.9893C12.469 14.7493 10.9518 14.342 10.7694 13.652C10.7042 13.4034 10.713 13.1689 10.7665 12.9443C10.6814 12.961 10.5949 12.9696 10.5081 12.97H9.59658C9.24683 12.9696 8.91152 12.8304 8.66423 12.5831C8.41694 12.3358 8.27788 12.0004 8.27756 11.6507C8.27756 10.924 8.86911 10.3331 9.59658 10.3331H10.5081C10.8093 10.3331 11.0948 10.4351 11.325 10.6169C11.6527 10.5737 11.9761 10.5029 12.2918 10.4052C12.6905 9.56998 13.0014 8.57118 13.0711 7.71147C13.3686 4.03307 11.1136 1.88098 7.88033 2.25302C5.52951 2.52362 4.12518 4.27653 3.97338 6.53325C3.81987 8.83347 4.67274 10.5324 5.57865 11.7785C5.97538 12.3234 6.39216 12.6737 6.32811 13.3303C6.2538 14.1066 5.42367 14.323 4.82991 14.5615C4.1264 14.8441 3.36862 15.2729 3.01076 15.4711C1.77802 16.1519 0.425024 16.9718 0.120935 18.0933C-0.552509 20.5788 1.7218 21.3317 3.59938 21.6793C5.21076 21.9765 7.02771 22 8.52225 22C11.2256 22 16.0866 21.8917 16.8705 19.8596C17.0934 19.283 16.9979 18.3641 16.8705 17.9864Z" fill="white"/>
<path d="M11.0849 11.2794C11.0225 11.1833 10.9371 11.1043 10.8364 11.0495C10.7358 10.9948 10.6231 10.966 10.5085 10.9658H9.59697C9.50526 10.9633 9.41398 10.9793 9.32854 11.0127C9.24309 11.0461 9.1652 11.0963 9.09947 11.1603C9.03373 11.2243 8.98149 11.3008 8.94581 11.3853C8.91014 11.4699 8.89176 11.5607 8.89176 11.6524C8.89176 11.7442 8.91014 11.835 8.94581 11.9195C8.98149 12.004 9.03373 12.0806 9.09947 12.1446C9.1652 12.2086 9.24309 12.2588 9.32854 12.2922C9.41398 12.3256 9.50526 12.3415 9.59697 12.3391H10.5085C10.6339 12.339 10.7568 12.3042 10.8638 12.2387C10.9707 12.1732 11.0575 12.0794 11.1145 11.9678C12.3853 11.8678 13.4907 11.4796 14.2666 10.9064C14.4448 11.0213 14.6555 11.0885 14.8828 11.0885H14.94C15.0906 11.0885 15.2398 11.0589 15.3789 11.0012C15.518 10.9436 15.6444 10.859 15.7509 10.7525C15.8573 10.6459 15.9417 10.5195 15.9992 10.3803C16.0567 10.2411 16.0862 10.0919 16.086 9.94131V7.65136C16.086 7.43507 16.0247 7.22321 15.9091 7.04043C15.7934 6.85764 15.6283 6.71144 15.4328 6.61882C15.2647 2.94164 12.2206 0 8.5021 0C4.78361 0 1.73906 2.94164 1.57161 6.61882C1.37601 6.7113 1.21072 6.85745 1.09499 7.04026C0.979267 7.22307 0.917875 7.435 0.91797 7.65136V9.94131C0.917777 10.0918 0.947245 10.2409 1.00469 10.38C1.06214 10.5192 1.14643 10.6456 1.25276 10.7521C1.35909 10.8587 1.48537 10.9432 1.62439 11.0009C1.7634 11.0586 1.91243 11.0884 2.06295 11.0885H2.12088C2.27145 11.0885 2.42054 11.0588 2.55963 11.0011C2.69871 10.9434 2.82507 10.8589 2.93147 10.7523C3.03787 10.6458 3.12223 10.5193 3.17974 10.3802C3.23724 10.241 3.26675 10.0919 3.26659 9.94131V7.65136C3.26648 7.43809 3.20672 7.22911 3.09406 7.04803C2.9814 6.86695 2.82034 6.72099 2.62908 6.62665C2.79261 3.52831 5.36368 1.05869 8.5021 1.05869C11.6393 1.05869 14.2116 3.52831 14.3744 6.62665C14.1833 6.72116 14.0225 6.86718 13.9099 7.04824C13.7974 7.22929 13.7377 7.43819 13.7376 7.65136V9.94131C13.7376 10.0934 13.7672 10.2349 13.8193 10.3671C13.1514 10.845 12.1793 11.1855 11.0849 11.2794Z" fill="white"/>
</svg>
