<svg width="28" height="28" viewBox="0 0 28 28" fill="none" xmlns="http://www.w3.org/2000/svg">
<path d="M6.30826 8.54752L5.4218 8.56296C4.08472 8.58626 3.01585 9.69306 3.03912 11.0302L3.1468 17.2097C3.1701 18.5468 4.27686 19.6157 5.61401 19.5924L6.50046 19.5769C7.8376 19.5536 8.90642 18.4468 8.88315 17.1097L8.77546 10.9302C8.75213 9.59309 7.6454 8.52422 6.30826 8.54752Z" fill="white"/>
<path d="M22.2145 8.23552L21.3281 8.25096C19.9909 8.27427 18.9221 9.38106 18.9454 10.7182L19.0531 16.8977C19.0764 18.2348 20.1831 19.3037 21.5203 19.2804L22.4067 19.2649C23.7438 19.2416 24.8127 18.1348 24.7894 16.7977L24.6817 10.6182C24.6584 9.28109 23.5516 8.21218 22.2145 8.23552Z" fill="white"/>
<path d="M17.6534 12.297C14.4753 11.7867 13.2792 11.8424 10.1208 12.4631L10.1742 15.5308C11.7633 15.786 13.3568 15.9002 14.9479 15.8725C16.539 15.8447 16.1277 15.6751 17.7069 15.3647L17.6534 12.297Z" fill="white"/>
</svg>
