<svg width="20" height="20" viewBox="0 0 20 20" fill="none" xmlns="http://www.w3.org/2000/svg">
<path d="M10 0C4.49 0 0 4.49 0 10C0 15.51 4.49 20 10 20C15.51 20 20 15.51 20 10C20 4.49 15.51 0 10 0ZM10.71 15.71C10.52 15.89 10.26 16 10 16C9.74 16 9.48 15.89 9.29 15.71C9.2 15.61 9.13 15.5 9.08 15.38C9.03 15.26 9 15.13 9 15C9 14.74 9.11 14.48 9.29 14.29C9.39 14.2 9.49 14.13 9.62 14.08C9.99 13.93 10.43 14.01 10.71 14.29C10.89 14.48 11 14.74 11 15C11 15.26 10.89 15.52 10.71 15.71ZM12.52 9.73L11.4 10.85C11.14 11.11 11 11.45 11 11.81V12.5C11 13.05 10.55 13.5 10 13.5C9.45 13.5 9 13.05 9 12.5V11.81C9 10.91 9.35 10.07 9.98 9.44L11.1 8.32C11.36 8.06 11.5 7.72 11.5 7.36C11.5 6.61 10.89 6 10.14 6H9.85C9.1 6 8.49 6.61 8.49 7.36V7.5C8.49 8.05 8.04 8.5 7.49 8.5C6.94 8.5 6.49 8.05 6.49 7.5V7.36C6.49 5.51 8 4 9.85 4H10.14C11.99 4 13.5 5.51 13.5 7.36C13.5 8.26 13.15 9.1 12.52 9.73Z" fill="white"/>
</svg>
