<svg width="20" height="20" viewBox="0 0 20 20" fill="none" xmlns="http://www.w3.org/2000/svg">
<path fill-rule="evenodd" clip-rule="evenodd" d="M10.0011 0C11.4955 0.000342538 12.9707 0.335424 14.3184 0.980617C15.6662 1.62581 16.8522 2.56471 17.7892 3.72832C18.7263 4.89193 19.3906 6.25066 19.7334 7.70465C20.0761 9.15864 20.0886 10.6709 19.7698 12.1304C19.4511 13.5898 18.8093 14.9593 17.8915 16.1382C16.9738 17.3171 15.8034 18.2754 14.4665 18.9427C13.1296 19.61 11.6601 19.9694 10.166 19.9943C8.67187 20.0193 7.19116 19.7092 5.83268 19.0869L0.847205 19.9885C0.722075 20.0111 0.59318 20.0002 0.47366 19.9568C0.354139 19.9134 0.248266 19.8391 0.16683 19.7415C0.0853951 19.6438 0.0313099 19.5264 0.0100872 19.401C-0.0111354 19.2757 0.00126344 19.147 0.0460199 19.028L1.47578 15.2233C0.547079 13.708 0.0391005 11.9727 0.00413865 10.196C-0.0308232 8.41923 0.408495 6.66529 1.27687 5.11468C2.14524 3.56408 3.4113 2.27282 4.94471 1.37385C6.47813 0.474869 8.22349 0.000648634 10.0011 0ZM5.36664 9.99642V10.0022L5.3652 10.0036H5.35801V9.99929V9.99642L5.36088 9.99498H5.3652L5.36664 9.99642ZM5.36232 8.56713C4.98236 8.56713 4.61797 8.71801 4.34929 8.9866C4.08062 9.25518 3.92968 9.61946 3.92968 9.99929C3.92968 10.3791 4.08062 10.7434 4.34929 11.012C4.61797 11.2806 4.98236 11.4315 5.36232 11.4315C5.74228 11.4315 6.10668 11.2806 6.37535 11.012C6.64402 10.7434 6.79496 10.3791 6.79496 9.99929C6.79496 9.61946 6.64402 9.25518 6.37535 8.9866C6.10668 8.71801 5.74228 8.56713 5.36232 8.56713ZM10.0083 9.99929V9.99642L10.0069 9.99498H10.0011L9.9997 9.99642V10.0022L10.0011 10.0036H10.0069L10.0083 10.0022V9.99929ZM8.56994 9.99929C8.56994 9.81112 8.60702 9.6248 8.67905 9.45095C8.75108 9.27711 8.85666 9.11915 8.98976 8.98609C9.12286 8.85303 9.28087 8.74749 9.45478 8.67548C9.62868 8.60347 9.81507 8.56641 10.0033 8.56641C10.1915 8.56641 10.3779 8.60347 10.5518 8.67548C10.7257 8.74749 10.8837 8.85303 11.0168 8.98609C11.1499 9.11915 11.2555 9.27711 11.3276 9.45095C11.3996 9.6248 11.4367 9.81112 11.4367 9.99929C11.4367 10.3791 11.2857 10.7434 11.017 11.012C10.7484 11.2806 10.384 11.4315 10.004 11.4315C9.62406 11.4315 9.25966 11.2806 8.99099 11.012C8.72232 10.7434 8.57138 10.3791 8.57138 9.99929H8.56994ZM14.65 9.99642V10.0022L14.6472 10.0036H14.6428L14.6414 10.0022V9.99642L14.6428 9.99498H14.6486L14.65 9.99642ZM14.6457 8.56713C14.2658 8.56713 13.9014 8.71801 13.6327 8.9866C13.364 9.25518 13.2131 9.61946 13.2131 9.99929C13.2131 10.3791 13.364 10.7434 13.6327 11.012C13.9014 11.2806 14.2658 11.4315 14.6457 11.4315C15.0257 11.4315 15.3901 11.2806 15.6587 11.012C15.9274 10.7434 16.0784 10.3791 16.0784 9.99929C16.0784 9.61946 15.9274 9.25518 15.6587 8.9866C15.3901 8.71801 15.0257 8.56713 14.6457 8.56713Z" fill="white"/>
</svg>
