<svg width="28" height="25" viewBox="0 0 28 25" fill="none" xmlns="http://www.w3.org/2000/svg">
<path fill-rule="evenodd" clip-rule="evenodd" d="M17.7099 0.940667C16.9162 2.03309 16.4348 3.32099 16.3175 4.66622C16.2001 6.01145 16.4513 7.36324 17.0439 8.57658C17.6365 9.78993 18.5483 10.819 19.6814 11.5535C20.8145 12.288 22.1262 12.7002 23.4757 12.7457V12.7613C23.497 13.0418 23.5182 13.3294 23.5466 13.6071C23.8823 16.7903 24.6473 18.9762 25.3826 20.4113C25.8713 21.3676 26.3516 22.0022 26.6916 22.3862C26.8408 22.5554 27.0018 22.714 27.1732 22.8607L27.1874 22.8692C27.3692 23.0012 27.5045 23.1873 27.5739 23.4009C27.6433 23.6145 27.6432 23.8447 27.5736 24.0582C27.5041 24.2718 27.3686 24.4578 27.1867 24.5896C27.0048 24.7214 26.7859 24.7921 26.5612 24.7917H1.06124C0.837131 24.7914 0.61884 24.7203 0.437588 24.5885C0.256335 24.4567 0.121405 24.2709 0.0520921 24.0578C-0.0172211 23.8446 -0.0173673 23.6151 0.0516746 23.4018C0.120716 23.1886 0.25541 23.0027 0.436495 22.8707L0.447828 22.8607L0.538495 22.7843C0.623495 22.7078 0.760911 22.5788 0.930911 22.3862C1.27091 22.0037 1.75116 21.369 2.23991 20.4128C3.21741 18.5017 4.24874 15.2717 4.24874 10.1292C4.24874 7.46442 5.24041 4.896 7.02541 2.992C8.81324 1.08517 11.2527 0 13.8112 0C14.3534 0 14.8884 0.0476944 15.4163 0.143083C15.7535 0.204 16.8585 0.54825 17.7099 0.940667Z" fill="#002E65"/>
</svg>
