<svg width="20" height="20" viewBox="0 0 20 20" fill="none" xmlns="http://www.w3.org/2000/svg">
<path fill-rule="evenodd" clip-rule="evenodd" d="M10 0C4.48076 0 0 4.48078 0 10C0 15.5192 4.48076 20 10 20C15.5192 20 20 15.5192 20 10C20 4.48078 15.5192 0 10 0ZM9.29692 4.61538C7.59769 4.61538 6.22 5.99307 6.22 7.69231C6.22 9.39155 7.59769 10.7692 9.29692 10.7692V13.8462C8.44692 13.8462 7.75846 13.1577 7.75846 12.3077C7.75846 11.8831 7.41384 11.5385 6.98923 11.5385C6.56461 11.5385 6.22 11.8831 6.22 12.3077C6.22 14.0069 7.59769 15.3846 9.29692 15.3846V16.1538C9.29692 16.5785 9.64153 16.9231 10.0661 16.9231C10.4908 16.9231 10.8354 16.5785 10.8354 16.1538V15.3846C12.5346 15.3846 13.9123 14.0069 13.9123 12.3077C13.9123 10.6084 12.5346 9.23077 10.8354 9.23077V6.15385C11.6846 6.15385 12.3738 6.8423 12.3738 7.69231C12.3738 8.11692 12.7185 8.46154 13.1431 8.46154C13.5677 8.46154 13.9123 8.11692 13.9123 7.69231C13.9123 5.99307 12.5346 4.61538 10.8354 4.61538V3.84615C10.8354 3.42154 10.4908 3.07692 10.0661 3.07692C9.64153 3.07692 9.29692 3.42154 9.29692 3.84615V4.61538ZM10.8354 10.7692V13.8462C11.6846 13.8462 12.3738 13.1577 12.3738 12.3077C12.3738 11.4577 11.6846 10.7692 10.8354 10.7692ZM9.29692 6.15385C8.44692 6.15385 7.75846 6.8423 7.75846 7.69231C7.75846 8.54232 8.44692 9.23077 9.29692 9.23077V6.15385Z" fill="white"/>
</svg>
