<svg width="12" height="16" viewBox="0 0 12 16" fill="none" xmlns="http://www.w3.org/2000/svg">
<path d="M11.6198 3.74842L8.00381 0.132439C7.919 0.0476985 7.80404 6.77538e-05 7.68415 0L1.35603 0C0.608314 0 0 0.608314 0 1.35603V14.0725C0 14.8203 0.608314 15.4286 1.35603 15.4286H10.3962C11.1439 15.4286 11.7522 14.8203 11.7522 14.0725V4.06808C11.7522 3.94483 11.7005 3.82909 11.6198 3.74842ZM8.13616 1.54325L10.209 3.61607H8.58817C8.33893 3.61607 8.13616 3.4133 8.13616 3.16406V1.54325ZM10.3962 14.5246H1.35603C1.10679 14.5246 0.904018 14.3218 0.904018 14.0725V1.35603C0.904018 1.10679 1.10679 0.904018 1.35603 0.904018H7.23214V3.16406C7.23214 3.91178 7.84046 4.52009 8.58817 4.52009H10.8482V14.0725C10.8482 14.3218 10.6454 14.5246 10.3962 14.5246Z" fill="white"/>
<path d="M8.58803 6.38818H3.16392C2.91429 6.38818 2.71191 6.59056 2.71191 6.84019C2.71191 7.08982 2.91429 7.2922 3.16392 7.2922H8.58803C8.83766 7.2922 9.04004 7.08982 9.04004 6.84019C9.04004 6.59056 8.83766 6.38818 8.58803 6.38818ZM8.58803 8.19622H3.16392C2.91429 8.19622 2.71191 8.3986 2.71191 8.64823C2.71191 8.89786 2.91429 9.10024 3.16392 9.10024H8.58803C8.83766 9.10024 9.04004 8.89786 9.04004 8.64823C9.04004 8.3986 8.83766 8.19622 8.58803 8.19622ZM8.58803 10.0043H3.16392C2.91429 10.0043 2.71191 10.2066 2.71191 10.4563C2.71191 10.7059 2.91429 10.9083 3.16392 10.9083H8.58803C8.83766 10.9083 9.04004 10.7059 9.04004 10.4563C9.04004 10.2066 8.83766 10.0043 8.58803 10.0043ZM6.77999 11.8123H3.16392C2.91429 11.8123 2.71191 12.0147 2.71191 12.2643C2.71191 12.5139 2.91429 12.7163 3.16392 12.7163H6.77999C7.02962 12.7163 7.232 12.5139 7.232 12.2643C7.232 12.0147 7.02962 11.8123 6.77999 11.8123Z" fill="white"/>
</svg>
