<svg width="18" height="18" viewBox="0 0 18 18" fill="none" xmlns="http://www.w3.org/2000/svg">
<path d="M6.70508 0.0996094H11.2949C11.8527 0.101284 12.3868 0.324332 12.7812 0.71875C13.1757 1.11317 13.3987 1.64729 13.4004 2.20508V3.95703H15.1846C15.9047 3.95711 16.5953 4.2437 17.1045 4.75293C17.6137 5.26221 17.9004 5.95267 17.9004 6.67285V11.3271C17.9004 12.0473 17.6137 12.7378 17.1045 13.2471C16.5953 13.7563 15.9047 14.0429 15.1846 14.043H13.4004V17.3574C13.4003 17.5013 13.343 17.6395 13.2412 17.7412C13.1395 17.8429 13.0013 17.9003 12.8574 17.9004H5.14258C4.9987 17.9003 4.86053 17.8429 4.75879 17.7412C4.65705 17.6395 4.59968 17.5013 4.59961 17.3574V14.043H2.81543C2.09528 14.0429 1.40474 13.7563 0.895508 13.2471C0.386301 12.7378 0.0996106 12.0473 0.0996094 11.3271V6.67285C0.0996109 5.95267 0.386301 5.26221 0.895508 4.75293C1.40474 4.2437 2.09528 3.95711 2.81543 3.95703H4.59961V2.20508L4.61133 1.99707C4.66044 1.51578 4.87368 1.06382 5.21875 0.71875C5.56382 0.373683 6.01578 0.160436 6.49707 0.111328L6.70508 0.0996094ZM5.68555 16.8145H12.3145V11.4717H5.68555V16.8145ZM6.70508 1.18555C6.43475 1.18555 6.17553 1.29322 5.98438 1.48438C5.79322 1.67553 5.68555 1.93475 5.68555 2.20508V3.95703H12.3145V2.20508C12.3145 1.93475 12.2068 1.67553 12.0156 1.48438C11.8245 1.29322 11.5653 1.18555 11.2949 1.18555H6.70508ZM4.59961 11.4717H4.5C4.35606 11.4717 4.21801 11.4143 4.11621 11.3125C4.01444 11.2107 3.95707 11.0726 3.95703 10.9287C3.95703 10.7848 4.01445 10.6467 4.11621 10.5449C4.21802 10.4431 4.35602 10.3857 4.5 10.3857H13.5C13.644 10.3857 13.782 10.4431 13.8838 10.5449C13.9856 10.6467 14.043 10.7848 14.043 10.9287C14.0429 11.0726 13.9856 11.2107 13.8838 11.3125C13.782 11.4143 13.6439 11.4717 13.5 11.4717H13.4004V12.957H15.1846C15.6162 12.9552 16.0297 12.7828 16.335 12.4775C16.6401 12.1723 16.8127 11.7587 16.8145 11.3271V6.67285L16.8057 6.51172C16.7673 6.13927 16.602 5.78953 16.335 5.52246C16.0679 5.25544 15.7181 5.09015 15.3457 5.05176L15.1846 5.04297H2.81543C2.38379 5.04477 1.97026 5.21725 1.66504 5.52246C1.35991 5.82766 1.18735 6.24128 1.18555 6.67285V11.3271L1.19434 11.4883C1.23266 11.8607 1.39803 12.2105 1.66504 12.4775C1.93206 12.7446 2.2819 12.9099 2.6543 12.9482L2.81543 12.957H4.59961V11.4717Z" fill="white" stroke="#EFF5FD" stroke-width="0.2"/>
<path d="M2.57129 5.88538H5.14258C5.28639 5.88538 5.4246 5.94297 5.52637 6.04456C5.62811 6.1463 5.68547 6.28447 5.68555 6.42834C5.68555 6.57232 5.62817 6.71033 5.52637 6.81213C5.42457 6.9139 5.28652 6.97131 5.14258 6.97131H2.57129C2.42742 6.97124 2.28924 6.91387 2.1875 6.81213C2.08587 6.71036 2.02832 6.57219 2.02832 6.42834C2.02839 6.28447 2.08576 6.1463 2.1875 6.04456C2.28924 5.94282 2.42742 5.88545 2.57129 5.88538Z" fill="white" stroke="#EFF5FD" stroke-width="0.2"/>
<path d="M7.07129 12.9568H10.9287C11.0726 12.9568 11.2107 13.0142 11.3125 13.116C11.4142 13.2177 11.4716 13.3559 11.4717 13.4998C11.4717 13.6437 11.4142 13.7818 11.3125 13.8835C11.2107 13.9854 11.0727 14.0427 10.9287 14.0427H7.07129C6.92741 14.0427 6.78924 13.9853 6.6875 13.8835C6.58587 13.7818 6.52832 13.6436 6.52832 13.4998C6.52839 13.3559 6.58576 13.2177 6.6875 13.116C6.78924 13.0142 6.92741 12.9569 7.07129 12.9568Z" fill="white" stroke="#EFF5FD" stroke-width="0.2"/>
<path d="M7.71387 14.8854H10.9287C11.0726 14.8854 11.2108 14.9428 11.3125 15.0446C11.4142 15.1463 11.4716 15.2845 11.4717 15.4283C11.4717 15.5722 11.4141 15.7104 11.3125 15.8121C11.2108 15.9139 11.0726 15.9712 10.9287 15.9713H7.71387C7.56999 15.9712 7.43182 15.9139 7.33008 15.8121C7.22845 15.7104 7.1709 15.5722 7.1709 15.4283C7.17097 15.2845 7.22834 15.1463 7.33008 15.0446C7.43182 14.9428 7.56999 14.8854 7.71387 14.8854Z" fill="white" stroke="#EFF5FD" stroke-width="0.2"/>
</svg>
