<svg width="26" height="30" viewBox="0 0 26 30" fill="none" xmlns="http://www.w3.org/2000/svg">
<path d="M12.9024 17.1153C14.836 17.1153 16.6231 16.5704 18.0528 15.6446C19.1602 14.9357 20.6016 15.0528 21.5743 15.9376C24.2755 18.3868 25.8106 21.8614 25.8048 25.5118V27.0763C25.8048 28.6935 24.4923 30.0001 22.8751 30.0001H2.92975C1.31257 30.0001 6.66045e-05 28.6935 6.66045e-05 27.0763V25.5118C-0.0116521 21.8673 1.5235 18.3868 4.22468 15.9435C5.19733 15.0587 6.6446 14.9415 7.74616 15.6505C9.18171 16.5704 10.963 17.1153 12.9024 17.1153Z" fill="#002E65"/>
<path d="M12.9019 14.5078C16.9081 14.5078 20.1558 11.2601 20.1558 7.25391C20.1558 3.24768 16.9081 0 12.9019 0C8.89563 0 5.64795 3.24768 5.64795 7.25391C5.64795 11.2601 8.89563 14.5078 12.9019 14.5078Z" fill="#002E65"/>
</svg>
