<svg width="20" height="20" viewBox="0 0 20 20" fill="none" xmlns="http://www.w3.org/2000/svg">
<g clip-path="url(#clip0_272_8484)">
<path d="M9.99977 0C5.16574 0 1.52148 1.77613 1.52148 4.13039C1.52148 6.48469 5.16578 8.26082 9.99977 8.26082C14.8338 8.26082 18.478 6.48469 18.478 4.13039C18.478 1.77613 14.8338 0 9.99977 0Z" fill="white"/>
<path d="M9.99977 9.56512C6.19027 9.56512 3.14992 8.6229 1.52148 7.09875V8.26075C1.52148 10.4911 5.16578 12.1738 9.99977 12.1738C14.8338 12.1738 18.478 10.4911 18.478 8.26075V7.09879C16.8496 8.62297 13.8093 9.56512 9.99977 9.56512Z" fill="white"/>
<path d="M9.99977 13.4782C6.19027 13.4782 3.14992 12.536 1.52148 11.0118V12.1738C1.52148 14.4042 5.16578 16.0869 9.99977 16.0869C14.8338 16.0869 18.478 14.4042 18.478 12.1738V11.0118C16.8496 12.536 13.8093 13.4782 9.99977 13.4782Z" fill="white"/>
<path d="M9.99977 17.3913C6.19027 17.3913 3.14992 16.4491 1.52148 14.9249V16.0869C1.52148 18.3173 5.16574 20 9.99977 20C14.8338 20 18.478 18.3173 18.478 16.087V14.925C16.8496 16.4491 13.8093 17.3913 9.99977 17.3913Z" fill="white"/>
</g>
<defs>
<clipPath id="clip0_272_8484">
<rect width="20" height="20" fill="white"/>
</clipPath>
</defs>
</svg>
